<svg xmlns="http://www.w3.org/2000/svg" version="1.1" width="498.57407" height="499.99994" viewBox="0 0 131.91439 132.29165" id="svg262" inkscape:version="1.2.2 (b0a8486541, 2022-12-01)" sodipodi:docname="gitassets.svg" xmlns:inkscape="http://www.inkscape.org/namespaces/inkscape" xmlns:sodipodi="http://sodipodi.sourceforge.net/DTD/sodipodi-0.dtd" xmlns:svg="http://www.w3.org/2000/svg"><metadata><rdf:RDF xmlns:rdf="http://www.w3.org/1999/02/22-rdf-syntax-ns#" xmlns:dc="http://purl.org/dc/elements/1.1/"><rdf:Description><dc:creator>RealFaviconGenerator</dc:creator><dc:source>https://realfavicongenerator.net</dc:source></rdf:Description></rdf:RDF></metadata><sodipodi:namedview id="namedview264" pagecolor="#ffffff" bordercolor="#000000" borderopacity="0.25" inkscape:showpageshadow="2" inkscape:pageopacity="0.0" inkscape:pagecheckerboard="0" inkscape:deskcolor="#d1d1d1" inkscape:document-units="mm" showgrid="false" inkscape:zoom="0.2102413" inkscape:cx="356.73295" inkscape:cy="1096.3593" inkscape:window-width="1440" inkscape:window-height="832" inkscape:window-x="0" inkscape:window-y="258" inkscape:window-maximized="1" inkscape:current-layer="layer1"></sodipodi:namedview><defs id="defs259"></defs><g inkscape:label="Layer 1" inkscape:groupmode="layer" id="layer1" transform="translate(-22.076696,-46.596412)">
    <path style="fill:#000000;stroke-width:0.116241" d="m 34.381027,178.85962 c -2.113339,-0.30831 -3.475971,-0.71413 -4.919652,-1.46523 -3.455733,-1.79785 -5.949283,-4.91961 -7.035327,-8.80772 l -0.308455,-1.10429 -0.0304,-33.82505 c -0.02695,-30.00084 -0.01019,-33.942159 0.148323,-34.860825 0.8426,-4.882582 4.43405,-9.039461 9.181386,-10.626856 2.003056,-0.669774 1.485875,-0.643752 13.716445,-0.690193 7.905153,-0.03001 11.61906,-0.0039 12.425202,0.08886 3.010863,0.344779 5.807437,1.667055 7.955768,3.761628 1.12935,1.101088 1.904181,2.108928 2.558137,3.327413 0.69024,1.286096 0.916839,1.925438 1.520468,4.289955 l 0.54618,2.139488 2.614926,-2.953175 c 1.43822,-1.624255 3.849005,-4.351996 5.357296,-6.061664 l 2.742368,-3.108469 -0.218763,-0.702891 c -0.947035,-3.042839 -0.173968,-6.714396 1.932811,-9.179543 1.365554,-1.597842 3.022694,-2.628741 5.182018,-3.223703 0.572742,-0.157812 1.125111,-0.199355 2.426996,-0.182532 0.927025,0.01199 1.829448,0.03792 2.005383,0.05759 0.291178,0.0326 0.94626,-0.673426 7.297057,-7.864322 4.907616,-5.556795 6.954766,-7.953103 6.901656,-8.078753 -0.2379,-0.562926 -0.52644,-1.938072 -0.58847,-2.804554 -0.17362,-2.424743 0.68363,-5.037763 2.27391,-6.931239 1.21328,-1.444605 2.58843,-2.382165 4.46306,-3.04285 1.18105,-0.416244 1.19457,-0.418046 3.10419,-0.413509 1.77973,0.0042 1.9892,0.02797 2.90604,0.329346 3.56678,1.172463 6.11498,4.028487 6.79107,7.611458 1.06828,5.661285 -2.89648,10.988453 -8.66446,11.641859 -1.20317,0.136296 -2.72222,0.0011 -3.81711,-0.33964 l -0.71326,-0.221985 -6.48829,7.341694 c -3.56856,4.03793 -6.447032,7.357836 -6.396603,7.377573 0.05038,0.01974 2.200983,-0.09804 4.778993,-0.261724 2.578,-0.163681 8.92427,-0.559547 14.10281,-0.879708 15.32343,-0.947358 16.95848,-1.051153 16.97599,-1.077714 0.009,-0.01395 0.2211,-0.417634 0.47093,-0.897127 0.61265,-1.17593 2.41124,-2.990946 3.65084,-3.684195 2.72225,-1.522431 5.94133,-1.719105 8.77621,-0.536189 1.04336,0.435371 2.49374,1.445271 3.27488,2.280302 1.80702,1.93173 2.70506,4.180706 2.70949,6.785542 0.008,4.471265 -2.80665,8.219777 -7.14679,9.519241 -0.89995,0.26945 -1.2655,0.314605 -2.61543,0.323012 -1.8202,0.01136 -2.64521,-0.160021 -4.16648,-0.8654 -1.81745,-0.842701 -3.45449,-2.287416 -4.31912,-3.811673 -0.22376,-0.39447 -0.46166,-0.798768 -0.52867,-0.898433 -0.10951,-0.162866 -1.85068,-0.07444 -17.20368,0.873839 -19.352601,1.195284 -18.534856,1.1359 -18.534856,1.346197 0,0.362292 -1.21162,2.508248 -1.844123,3.266195 -1.238167,1.483759 -3.129036,2.675455 -5.078498,3.200659 -1.662969,0.448026 -4.332799,0.311683 -5.873709,-0.299937 -0.136383,-0.05407 -1.442655,1.353589 -5.033483,5.424332 l -4.849296,5.49744 16.773824,0.0616 c 15.165921,0.0557 16.869881,0.0807 17.775951,0.25952 2.78345,0.54946 5.25118,1.85451 7.19287,3.80389 2.20137,2.21012 3.5793,5.01123 3.94661,8.02286 0.0992,0.81297 0.12453,7.46912 0.0964,25.28166 l -0.0382,24.17814 -0.2753,1.04616 c -0.66166,2.51441 -1.74104,4.50503 -3.39436,6.25997 -1.98195,2.10377 -4.19503,3.35847 -7.25245,4.11176 -0.75996,0.18723 -3.28273,0.20133 -38.881648,0.21722 -20.937915,0.009 -38.199713,-0.002 -38.359539,-0.0254 z m 76.375883,-9.52931 c 0.91678,-0.43444 1.48362,-0.91316 1.95109,-1.64772 0.77203,-1.21318 0.7223,0.63525 0.68899,-25.60584 l -0.0301,-23.76927 -0.37984,-0.77154 c -0.48114,-0.97733 -1.49341,-1.94308 -2.43499,-2.32313 l -0.6724,-0.27139 H 72.391861 c -35.776408,0 -37.515068,0.01 -38.08632,0.20888 -1.306398,0.45589 -2.329493,1.43407 -2.851148,2.72596 l -0.269983,0.66863 -0.0333,23.30634 c -0.02342,16.43005 0.0039,23.52542 0.09339,24.04896 0.306215,1.795 1.705242,3.33174 3.401732,3.73654 0.205771,0.0491 17.243612,0.0814 37.861867,0.0718 l 37.487751,-0.0175 z m -78.23574,-63.1759 c 1.573718,-0.4035 3.277501,-0.45043 16.419051,-0.45232 8.759958,-0.002 12.873696,-0.0401 12.873696,-0.12166 0,-0.36127 -1.450231,-5.843054 -1.678742,-6.345505 -0.513365,-1.128824 -1.601642,-2.052779 -2.846697,-2.416857 -0.556718,-0.162795 -1.904393,-0.184617 -11.399583,-0.184617 -9.557239,0 -10.83923,0.02108 -11.399592,0.187046 -1.699655,0.503532 -2.915366,1.851238 -3.236389,3.587753 -0.06966,0.37678 -0.126634,1.9108 -0.126634,3.40893 v 2.72387 l 0.261537,-0.0816 c 0.143848,-0.0449 0.653861,-0.18214 1.133353,-0.30508 z" id="path279"></path>
  </g><style>@media (prefers-color-scheme: light) { :root { filter: none; } }
@media (prefers-color-scheme: dark) { :root { filter: contrast(0.3846153846153846) brightness(4.5); } }
</style></svg>